<svg xmlns="http://www.w3.org/2000/svg" xmlns:xlink="http://www.w3.org/1999/xlink" width="343.532" height="359.701" viewBox="0 0 343.532 359.701"><defs><linearGradient id="a" x1="0.707" y1="0.707" x2="0" gradientUnits="objectBoundingBox"><stop offset="0" stop-color="#606f92"></stop><stop offset="1" stop-color="#f1f7ff"></stop></linearGradient></defs><path d="M38.682,37.629C67.247,25.754,87.168,21.027,115.8,11.4c32.1-13.319,50.9-15.024,76.345,0,24.285,18.453,91.267,59.375,113.7,76.555,24.8,17.964,38.341,31.054,38.173,64.982q-.771,43.76,0,87.518t-38.173,64.982Q266.9,326.664,228.722,349.2t-76.345,0c-25.449-15.023-87.733-58.37-113.695-72.519S0,240.871.509,211.7s.514-79.916,0-109.089S12.719,51.777,38.682,37.629Z" transform="translate(-0.494 -0.767)" fill="#fc1fdb" fill-rule="evenodd" opacity="0.102"></path><path d="M38.682,37.629C67.247,25.754,87.168,21.027,115.8,11.4c32.1-13.319,50.9-15.024,76.345,0,24.285,18.453,91.267,59.375,113.7,76.555,24.8,17.964,38.341,31.054,38.173,64.982q-.771,43.76,0,87.518t-38.173,64.982Q266.9,326.664,228.722,349.2t-76.345,0c-25.449-15.023-87.733-58.37-113.695-72.519S0,240.871.509,211.7s.514-79.916,0-109.089S12.719,51.777,38.682,37.629Z" transform="translate(-0.494 -0.767)" fill="url(#a)"></path></svg>