<svg xmlns="http://www.w3.org/2000/svg" xmlns:xlink="http://www.w3.org/1999/xlink" id="Capa_1" x="0px" y="0px" viewBox="0 0 512 512" style="enable-background:new 0 0 512 512;" xml:space="preserve">
<style type="text/css">
	.st0{fill:url(#SVGID_1_);}
	.st1{fill:url(#SVGID_2_);}
</style>
<g>
	<g>
		
			<linearGradient id="SVGID_1_" gradientUnits="userSpaceOnUse" x1="255.7021" y1="2" x2="255.7021" y2="514" gradientTransform="matrix(1 0 0 -1 0 514)">
			<stop offset="0" style="stop-color:#FFE59A"></stop>
			<stop offset="1" style="stop-color:#FFFFD5"></stop>
		</linearGradient>
		<circle class="st0" cx="255.7" cy="256" r="256"></circle>
	</g>
	<g>
		<g>
			
				<linearGradient id="SVGID_2_" gradientUnits="userSpaceOnUse" x1="255.7027" y1="408.9997" x2="255.7027" y2="107.005" gradientTransform="matrix(1 0 0 -1 0 514)">
				<stop offset="0" style="stop-color:#FD5900"></stop>
				<stop offset="1" style="stop-color:#FFDE00"></stop>
			</linearGradient>
			<path class="st1" d="M300.1,238.2c0-27-17.4-44.4-44.4-44.4s-44.4,17.4-44.4,44.4c0,30.1,15.6,62.2,44.4,62.2     S300.1,268.4,300.1,238.2L300.1,238.2z M282.3,300.4h-26.6h-26.6c-19.6,0-35.5,15.9-35.5,35.5c0,3.5,0.5,7,1.6,10.4l16.6,54.4     c1.1,3.7,4.6,6.3,8.5,6.3h71.1c3.9,0,7.4-2.5,8.5-6.3l16.6-54.4c1-3.4,1.6-6.9,1.6-10.4C317.9,316.3,301.9,300.4,282.3,300.4z      M401.5,305.6L366,270.1c-1.1-1.1-2.4-1.8-3.7-2.5v-98l33.9,6.4c4.8,0.9,9.5-2.3,10.4-7.1c0.9-4.8-2.3-9.5-7.1-10.4l-95.6-17.9     l95.6-17.9c4.8-0.9,8-5.5,7.1-10.4c-0.9-4.8-5.5-8-10.4-7.1l-140.5,26.3l-140.5-26.3c-4.8-0.9-9.5,2.3-10.4,7.1     c-0.9,4.8,2.3,9.5,7.1,10.4l95.6,17.9l-95.6,17.9c-4.8,0.9-8,5.5-7.1,10.4c0.9,4.8,5.5,8,10.4,7.1l33.9-6.4v98     c-1.3,0.7-2.6,1.5-3.7,2.5l-35.5,35.5c-3.4,3.3-5.2,7.8-5.2,12.6c0,9.8,8,17.8,17.8,17.8c4.8,0,9.2-1.9,12.6-5.2l25-25l18.8,13.1     c4-11.7,11.8-21.5,22-27.9l-32.7-22.8c-0.4-0.3-0.9-0.4-1.3-0.6V166.2l88.8-16.7l88.8,16.7v101.3c-0.4,0.2-0.9,0.3-1.3,0.6     l-32.7,22.8c10.3,6.4,18.1,16.3,22,27.9l18.8-13.1l25,25c3.3,3.4,7.8,5.2,12.6,5.2c9.8,0,17.8-8,17.8-17.8     C406.7,313.4,404.8,308.9,401.5,305.6L401.5,305.6z"></path>
		</g>
	</g>
</g>
</svg>