<svg xmlns="http://www.w3.org/2000/svg" xmlns:xlink="http://www.w3.org/1999/xlink" id="Capa_1" x="0px" y="0px" viewBox="0 0 512 512" style="enable-background:new 0 0 512 512;" xml:space="preserve">
<style type="text/css">
	.st0{fill:url(#SVGID_1_);}
	.st1{fill:url(#SVGID_2_);}
</style>
<g>
	<g>
		
			<linearGradient id="SVGID_1_" gradientUnits="userSpaceOnUse" x1="256" y1="2" x2="256" y2="514" gradientTransform="matrix(1 0 0 -1 0 514)">
			<stop offset="0" style="stop-color:#C3FFE8"></stop>
			<stop offset="0.9973" style="stop-color:#F0FFF4"></stop>
		</linearGradient>
		<circle class="st0" cx="256" cy="256" r="256"></circle>
	</g>
	<g>
		<g>
			
				<linearGradient id="SVGID_2_" gradientUnits="userSpaceOnUse" x1="255.9995" y1="409.0005" x2="255.9995" y2="106.9995" gradientTransform="matrix(1 0 0 -1 0 514)">
				<stop offset="0" style="stop-color:#00B59C"></stop>
				<stop offset="1" style="stop-color:#9CFFAC"></stop>
			</linearGradient>
			<path class="st1" d="M188.6,140.5l20.4-20.4c3.5-3.5,3.5-9.1,0-12.6c-3.5-3.5-9.1-3.5-12.6,0L161,143c-1.7,1.6-2.7,3.9-2.7,6.4     V256c0,5,3.9,8.9,8.9,8.9h79.9V140.5L188.6,140.5z M351,143l-35.4-35.4c-3.5-3.5-9.1-3.5-12.6,0c-3.5,3.5-3.5,9.1,0,12.6     l20.4,20.4h-58.5v124.4h79.9c5,0,8.9-3.9,8.9-8.9V149.4C353.7,146.9,352.6,144.6,351,143L351,143z M264.9,131.6     c0-5-3.9-8.9-8.9-8.9s-8.9,3.9-8.9,8.9v8.9h17.8L264.9,131.6L264.9,131.6z M247.1,341.1l-50.7,50.7c-3.5,3.5-3.5,9.1,0,12.6     s9.1,3.5,12.6,0l38.1-38.1v31.9c0,5,3.9,8.9,8.9,8.9c5,0,8.9-3.9,8.9-8.9v-31.9l38.1,38.1c3.5,3.5,9.1,3.5,12.6,0s3.5-9.1,0-12.6     l-50.7-50.7v-76.3h-17.8L247.1,341.1L247.1,341.1z"></path>
		</g>
	</g>
</g>
</svg>